#vertices
v -34.450001 -16.054054 -100.000000
v -14.450001 -17.351351 -100.000000
v 5.549999 -28.378378 -100.000000
v 25.549999 -21.135136 -100.000000
v -34.450001 -26.756756 -80.000000
v -14.450001 -25.135136 -80.000000
v 5.549999 -17.459459 -80.000000
v 25.549999 -29.135136 -80.000000
v -34.450001 -21.567568 -60.000000
v -14.450001 -19.189190 -60.000000
v 5.549999 -28.162163 -60.000000
v 25.549999 -28.702703 -60.000000
v -34.450001 -29.351351 -40.000000
v -14.450001 -19.189190 -40.000000
v 5.549999 -21.675674 -40.000000
v 25.549999 -28.486486 -40.000000

#normals
vn 0.057098 0.880254 0.471055
vn 0.457013 0.828897 0.322598
vn -0.302938 0.836471 -0.456668
vn -0.078242 0.964983 -0.250374
vn -0.345251 0.899597 -0.267448
vn 0.457652 0.783940 0.419514
vn -0.110147 0.926240 0.360482
vn 0.409339 0.912382 -0.000000
vn 0.025700 0.950909 -0.308403
vn -0.075345 0.929261 0.361658
vn -0.319228 0.831790 -0.454113
vn 0.476530 0.816278 0.326511
vn -0.113255 0.952369 -0.283137
vn 0.367837 0.819877 0.438745
vn 0.027011 0.999402 -0.021609
vn -0.452987 0.891517 0.000000
vn 0.117442 0.944640 -0.306370
vn 0.322345 0.946567 -0.010233

#faces
f 1//1 5//1 2//1
f 2//2 6//2 3//2
f 3//3 7//3 4//3
f 5//4 9//4 6//4
f 6//5 10//5 7//5
f 7//6 11//6 8//6
f 9//7 13//7 10//7
f 10//8 14//8 11//8
f 11//9 15//9 12//9
f 5//10 6//10 2//10
f 6//11 7//11 3//11
f 7//12 8//12 4//12
f 9//13 10//13 6//13
f 10//14 11//14 7//14
f 11//15 12//15 8//15
f 13//16 14//16 10//16
f 14//17 15//17 11//17
f 15//18 16//18 12//18
